# xmcd
#
# Track frame offsets:
#	150
#	42395
#	69511
#	82346
#	104487
#	126064
#	147874
#	162859
#	177876
#	193476
#	210184
#	223346
#	235616
#	258646
#	289939
#	301011
#
# Disc length: 4333 seconds
#
# Revision: 1
# Processed by: cddbd v1.5.1PL0 Copyright (c) Steve Scherf et al.
# Submitted via: CDex 1.50Beta5
#
DISCID=f310eb10
DTITLE=Various Artist - Jazz Selection
DYEAR=1900
DGENRE=Jazz
TTITLE0=ART BLAKEY/MOANIN'
TTITLE1=ビル・エバンス/枯葉
TTITLE2=GIL FULLER/THE SCENE CHANGES
TTITLE3=RAY BRYANT/黄金の耳飾
TTITLE4=Sidny Bechet/ST. LOUIS BLUES
TTITLE5=BUNNY BERIGAN/I CAN'T GET STARTED
TTITLE6=BENNY GOODMAN/STOMPIN' AT THE SAVOY
TTITLE7=LIONEL HAMPTON/ON THE SUNNY SIDE OF THE STREET
TTITLE8=METRONOME ALL-STARS/ONE O'CLOCK JUMP
TTITLE9=ALBERT AMMONS/BOOGIE WOOGIE STOMP
TTITLE10=GLENN MILLER/LITTLE BROWN JUG
TTITLE11=STAN GETZ/STAN'S MOOD
TTITLE12=KENNY DORHAN/AFRODISIA
TTITLE13=MAL WALDRON/CAT WALK
TTITLE14=LESTER YOUNG/DING DONG
TTITLE15=オスカー・ピーターソン/一晩中踊れたら
EXTD=
EXTT0=
EXTT1=
EXTT2=
EXTT3=
EXTT4=
EXTT5=
EXTT6=
EXTT7=
EXTT8=
EXTT9=
EXTT10=
EXTT11=
EXTT12=
EXTT13=
EXTT14=
EXTT15=
PLAYORDER=
